HIERARCHY
ROOT hip
{
  OFFSET 0 0 0
  CHANNELS 6 Xposition Yposition Zposition Zrotation Yrotation Xrotation
  JOINT abdomen
  {
    OFFSET 0 20.6881 -0.73152
    CHANNELS 3 Zrotation Xrotation Yrotation
    JOINT chest
    {
      OFFSET 0 11.7043 -0.48768
      CHANNELS 3 Zrotation Xrotation Yrotation
      JOINT neck
      {
        OFFSET 0 22.1894 -2.19456
        CHANNELS 3 Zrotation Xrotation Yrotation
        JOINT head
        {
          OFFSET -0.24384 7.07133 1.2192
          CHANNELS 3 Zrotation Xrotation Yrotation
          JOINT leftEye
          {
            OFFSET 4.14528 8.04674 8.04672
            CHANNELS 3 Zrotation Xrotation Yrotation
            End Site
            {
              OFFSET 1 0 0
            }
          }
          JOINT rightEye
          {
            OFFSET -3.6576 8.04674 8.04672
            CHANNELS 3 Zrotation Xrotation Yrotation
            End Site
            {
              OFFSET 1 0 0
            }
          }
        }
      }
      JOINT rCollar
      {
        OFFSET -2.68224 19.2634 -4.8768
        CHANNELS 3 Zrotation Xrotation Yrotation
        JOINT rShldr
        {
          OFFSET -8.77824 -1.95073 1.46304
          CHANNELS 3 Zrotation Xrotation Yrotation
          JOINT rForeArm
          {
            OFFSET -28.1742 -1.7115 0.48768
            CHANNELS 3 Zrotation Xrotation Yrotation
            JOINT rHand
            {
              OFFSET -22.5879 0.773209 7.07136
              CHANNELS 3 Zrotation Xrotation Yrotation
              JOINT rThumb1
              {
                OFFSET -1.2192 -0.487915 3.41376
                CHANNELS 3 Zrotation Xrotation Yrotation
                JOINT rThumb2
                {
                  OFFSET -3.37035 -0.52449 3.41376
                  CHANNELS 3 Zrotation Xrotation Yrotation
                  End Site
                  {
                    OFFSET -1.78271 -1.18214 1.43049
                  }
                }
              }
              JOINT rIndex1
              {
                OFFSET -7.75947 0.938293 5.60832
                CHANNELS 3 Zrotation Xrotation Yrotation
                JOINT rIndex2
                {
                  OFFSET -2.54057 -0.884171 1.56538
                  CHANNELS 3 Zrotation Xrotation Yrotation
                  End Site
                  {
                    OFFSET -1.62519 -0.234802 1.16502
                  }
                }
              }
              JOINT rMid1
              {
                OFFSET -8.24714 1.18213 3.41376
                CHANNELS 3 Zrotation Xrotation Yrotation
                JOINT rMid2
                {
                  OFFSET -3.10165 -0.590103 1.0647
                  CHANNELS 3 Zrotation Xrotation Yrotation
                  End Site
                  {
                    OFFSET -2.48547 -0.328903 0.83742
                  }
                }
              }
              JOINT rRing1
              {
                OFFSET -8.82822 0.546677 1.51678
                CHANNELS 3 Zrotation Xrotation Yrotation
                JOINT rRing2
                {
                  OFFSET -2.60934 -0.819778 -0.0198488
                  CHANNELS 3 Zrotation Xrotation Yrotation
                  End Site
                  {
                    OFFSET -2.33842 -0.294052 0.168128
                  }
                }
              }
              JOINT rPinky1
              {
                OFFSET -8.27202 -0.0477905 -0.4584
                CHANNELS 3 Zrotation Xrotation Yrotation
                JOINT rPinky2
                {
                  OFFSET -1.82734 -0.647385 -0.700984
                  CHANNELS 3 Zrotation Xrotation Yrotation
                  End Site
                  {
                    OFFSET -1.69225 -0.51767 -0.607171
                  }
                }
              }
            }
          }
        }
      }
      JOINT lCollar
      {
        OFFSET 2.68224 19.2634 -4.8768
        CHANNELS 3 Zrotation Xrotation Yrotation
        JOINT lShldr
        {
          OFFSET 8.77824 -1.95073 1.46304
          CHANNELS 3 Zrotation Xrotation Yrotation
          JOINT lForeArm
          {
            OFFSET 28.1742 -1.7115 0.48768
            CHANNELS 3 Zrotation Xrotation Yrotation
            JOINT lHand
            {
              OFFSET 22.5879 0.773209 7.07136
              CHANNELS 3 Zrotation Xrotation Yrotation
              JOINT lThumb1
              {
                OFFSET 1.2192 -0.487915 3.41376
                CHANNELS 3 Zrotation Xrotation Yrotation
                JOINT lThumb2
                {
                  OFFSET 3.37035 -0.52449 3.41376
                  CHANNELS 3 Zrotation Xrotation Yrotation
                  End Site
                  {
                    OFFSET 1.78271 -1.18214 1.43049
                  }
                }
              }
              JOINT lIndex1
              {
                OFFSET 7.75947 0.938293 5.60832
                CHANNELS 3 Zrotation Xrotation Yrotation
                JOINT lIndex2
                {
                  OFFSET 2.54057 -0.884171 1.56538
                  CHANNELS 3 Zrotation Xrotation Yrotation
                  End Site
                  {
                    OFFSET 1.62519 -0.234802 1.16502
                  }
                }
              }
              JOINT lMid1
              {
                OFFSET 8.24714 1.18213 3.41376
                CHANNELS 3 Zrotation Xrotation Yrotation
                JOINT lMid2
                {
                  OFFSET 3.10165 -0.590103 1.0647
                  CHANNELS 3 Zrotation Xrotation Yrotation
                  End Site
                  {
                    OFFSET 2.48547 -0.328903 0.83742
                  }
                }
              }
              JOINT lRing1
              {
                OFFSET 8.82822 0.546677 1.51678
                CHANNELS 3 Zrotation Xrotation Yrotation
                JOINT lRing2
                {
                  OFFSET 2.60934 -0.819778 -0.0198488
                  CHANNELS 3 Zrotation Xrotation Yrotation
                  End Site
                  {
                    OFFSET 2.33842 -0.294052 0.168128
                  }
                }
              }
              JOINT lPinky1
              {
                OFFSET 8.27202 -0.0477905 -0.4584
                CHANNELS 3 Zrotation Xrotation Yrotation
                JOINT lPinky2
                {
                  OFFSET 1.82734 -0.647385 -0.700984
                  CHANNELS 3 Zrotation Xrotation Yrotation
                  End Site
                  {
                    OFFSET 1.69225 -0.51767 -0.607171
                  }
                }
              }
            }
          }
        }
      }
    }
  }
  JOINT rButtock
  {
    OFFSET -8.77824 4.35084 1.2192
    CHANNELS 3 Zrotation Xrotation Yrotation
    JOINT rThigh
    {
      OFFSET 0 -1.70687 -2.19456
      CHANNELS 3 Zrotation Xrotation Yrotation
      JOINT rShin
      {
        OFFSET 0 -36.8199 0.73152
        CHANNELS 3 Zrotation Xrotation Yrotation
        JOINT rFoot
        {
          OFFSET 0.73152 -45.1104 -5.12064
          CHANNELS 3 Zrotation Xrotation Yrotation
          End Site
          {
            OFFSET -1.1221 -3.69964 12.103
          }
        }
      }
    }
  }
  JOINT lButtock
  {
    OFFSET 8.77824 4.35084 1.2192
    CHANNELS 3 Zrotation Xrotation Yrotation
    JOINT lThigh
    {
      OFFSET 0 -1.70687 -2.19456
      CHANNELS 3 Zrotation Xrotation Yrotation
      JOINT lShin
      {
        OFFSET 0 -36.8199 0.73152
        CHANNELS 3 Zrotation Xrotation Yrotation
        JOINT lFoot
        {
          OFFSET -0.73152 -45.1104 -5.12064
          CHANNELS 3 Zrotation Xrotation Yrotation
          End Site
          {
            OFFSET 1.1221 -3.69964 12.103
          }
        }
      }
    }
  }
}
MOTION
Frames:	4
Frame Time:	0.00833333
10.6345 87.2913 60.9495 -82.916648 39.690659 -77.466913 30.969778 29.523163 -65.124584 6.632857 -8.912041 51.963414 19.993531 28.308742 88.917469 -34.719633 -3.03749 -128.496769 -13.7702 -6.452504 50.048258 -19.045863 -15.655285 78.669254 -64.718366 76.988915 72.690893 59.156181 -7.324502 50.249625 -134.563829 56.099228 58.781018 149.390854 -49.377277 131.193725 11.97985 -2.00472 9.029771 -14.737511 21.467201 1.19112 0.459749 54.878311 13.316056 153.180196 -19.705761 133.99794 0.260164 4.125059 25.980438 28.438112 -2.103711 -41.984196 23.2106 32.254357 -13.941602 145.289681 -49.444663 145.112627 -126.886221 44.187858 -144.659966 101.745244 67.650416 -88.704221 156.878798 8.442959 -141.933438 -49.114583 57.162253 80.063038 75.745716 -65.509438 -168.021929 -179.21839 -22.251314 -149.133828 141.104985 56.606308 -84.030326 125.79533 11.183277 -5.124614 158.079967 -23.099648 -147.042998 11.640788 57.897425 19.609716 -172.089071 27.60559 -153.848157 -144.185091 -73.445462 174.202291 131.186691 25.271619 -147.815669 137.186044 44.562412 -142.191862 -2.651 -35.558159 0.392285 -2.820382 29.665931 6.555607 89.931093 28.089634 41.799915 -169.634948 -5.852608 41.906954 25.168239 31.972293 -145.44729 -23.845328 -35.046955 76.048445 41.20854 -17.774869 31.676896 14.08361 9.55885 61.035653 14.206767 4.74195 96.885416 -76.464375 -12.83699 171.55655
10.1242 87.3239 62.412800000000004 -85.17988 40.232141 -79.44094 22.440561 30.948788 69.197269 -10.813037 -4.550418 -79.028881 19.789342 24.455427 71.677522 -28.291482 -12.136941 -112.273866 -15.221858 -7.753808 53.784695 -172.807447 5.591374 75.692936 -147.908117 2.096699 171.343106 130.417689 -22.830299 146.766862 -14.12239 -28.283291 42.555651 0.736863 9.184485 -0.284011 -23.306199 23.661495 20.478719 12.401494 -4.308725 6.322681 -10.636903 -78.767407 -98.873878 9.101415 27.040697 56.905721 23.725791 -21.071854 19.226926 176.084313 35.080773 -165.694276 16.586374 50.501795 -11.233701 -177.136879 30.907061 152.190172 -122.206992 10.001312 -139.071536 -7.529248 38.628899 -9.153478 111.999824 48.800141 -106.391204 54.937545 12.820392 -6.577065 -7.591826 19.742661 114.224387 172.618256 6.00524 -147.178918 177.133932 20.723228 -106.736364 81.495761 -40.334238 47.334914 164.692104 1.834509 -141.672253 146.697947 73.033522 -97.864488 19.363866 -17.624875 26.785733 -54.397589 11.161686 -23.241119 -8.439545 -49.201632 -6.845098 73.357686 -54.624131 104.070499 21.210023 -51.170769 20.343343 -5.665855 36.39876 13.61932 -42.833031 29.79677 -42.492723 52.5999 -78.557754 -109.53819 -12.2241 -40.515383 68.308239 102.215125 25.301942 -33.757335 75.886188 54.401717 90.800557 -55.254893 26.523675 -116.531847 -0.880167 3.721474 103.80863 40.368773 -28.713824 -48.361965
10.051300000000001 87.3293 63.6424 -86.288538 40.118732 -81.096558 19.633342 31.717516 91.84066 -12.44327 -1.109476 -100.738358 0.891024 35.559119 -117.108887 28.151483 37.188468 76.428126 -17.788303 -9.368621 55.27338 -176.08556 2.694297 69.068073 -142.336973 -37.91421 -178.652456 -42.072342 18.075498 0.70424 43.342926 -38.380928 -56.575723 175.367558 11.363968 145.470339 -14.64738 21.968622 16.41879 -24.873171 21.193071 30.773068 -64.621551 60.007331 94.429458 -4.133452 8.461835 -70.278799 130.840861 -68.425578 91.954516 172.159864 -67.731844 175.233336 -103.120597 -52.890874 -112.828069 36.981615 -8.419411 -10.259718 22.179046 23.931585 4.107064 -122.049758 30.105824 -171.011484 128.11004 43.131259 -123.298366 53.500286 -8.563517 7.412142 83.403653 7.056786 67.054541 -141.028814 -73.316406 -127.109041 3.297365 -34.060397 16.492766 4.694774 39.78576 -32.902307 154.129401 44.773114 -123.858625 -167.942225 17.097521 -110.410654 168.5814 65.121778 -166.14607 51.304459 -44.797462 38.408362 2.414279 -32.542091 -1.252115 -129.220734 76.051202 87.42185 147.562604 64.204647 162.318901 15.782434 -67.927405 30.822952 -171.508975 78.345334 1.53619 126.939692 -17.608277 89.298783 45.063219 21.847272 102.53959 -75.755308 31.456932 161.022112 -61.254397 63.270457 -93.190873 -121.413255 66.562591 62.315066 11.929638 -3.991311 62.750209 -68.321629 0.210112 168.66239
10.3163 87.26 64.53750000000001 -87.837537 39.796453 -83.18963 17.697788 31.987411 118.333088 -12.162924 3.898638 -126.157049 3.262348 21.838769 -17.939725 27.344774 -18.698572 -11.717414 -24.312191 -11.932852 51.764024 -177.439108 1.732797 68.162732 -144.785464 -24.670811 176.226743 -34.532692 -35.118613 11.974313 -2.053015 1.315023 -86.521377 164.223246 -19.713629 139.049885 -93.300761 26.454622 63.872761 -15.911676 -3.262917 38.355685 14.155882 47.170543 11.240001 -37.678452 27.169512 -45.210582 -156.031058 3.295958 138.664479 153.746627 -28.171209 131.444063 -62.601617 78.800606 66.76415 0.892966 -16.797889 -2.860574 -86.83123 -48.046469 -86.923454 27.571308 8.218321 -26.513202 -6.219232 -29.683701 -6.101212 66.385556 30.411737 -126.54377 -9.057016 81.750839 118.551962 172.135856 7.537296 -149.545334 129.467557 48.423982 -68.000994 51.465599 -35.516647 -24.69796 17.349273 11.134865 20.5507 178.128582 -37.862382 -69.374454 168.755832 75.516675 179.229316 19.085988 24.446564 52.623721 13.183569 40.728244 -7.893236 105.53097 25.999355 -134.792847 -21.90859 48.21453 -5.815013 -22.125772 6.623092 10.491706 6.792166 -13.812392 8.712651 -95.08438 -31.913765 167.849897 -46.862071 -34.812369 -113.349916 45.170453 29.533063 -135.993728 -2.833281 -16.405236 -5.846922 53.873602 10.537973 -148.745583 4.687479 -0.484313 144.002375 62.464145 31.558491 -8.435698
